<svg xmlns="http://www.w3.org/2000/svg" width="740" height="520">
<rect width="100%" height="100%" fill="#f4f4f4"/>
<defs><pattern id="h2" patternUnits="userSpaceOnUse" width="7" height="7"><path d="M0,7 L7,0 M-1.5,1.5 L1.5,-1.5 M5.5,8.5 L8.5,5.5" stroke="#909090" stroke-width="0.7"/></pattern></defs>
<text x="16" y="22" font-size="13" fill="#222" text-anchor="start" font-weight="bold" font-family="sans-serif">E36 Tunnel — FRONT CROSS-SECTION (at crossmember, looking forward)</text>
<text x="16" y="38" font-size="9" fill="#888" text-anchor="start" font-weight="normal" font-family="sans-serif">* = estimated  |  ✓ = cited  |  ~1.05px/mm</text>
<rect x="0" y="390" width="740" height="130" fill="#c8b49a"/>
<line x1="0" y1="390" x2="740" y2="390" stroke="#888" stroke-width="2"/>
<text x="30" y="408" font-size="10" fill="#8a7060" text-anchor="start" font-weight="normal" font-family="sans-serif">FLOOR / GROUND</text>
<path d="M 223,390 L 223,178 Q 223,152 249,152 L 491,152 Q 517,152 517,178 L 517,390 Z" fill="#a8a8b8" stroke="#777" stroke-width="2"/>
<path d="M 223,390 L 223,178 Q 223,152 249,152 L 491,152 Q 517,152 517,178 L 517,390 Z" fill="url(#h2)" opacity="0.4"/>
<path d="M 236,390 L 236,182 Q 236,164 254,164 L 486,164 Q 504,164 504,182 L 504,390 Z" fill="#f4f4f4" stroke="#888" stroke-width="1.5"/>
<rect x="236" y="173" width="269" height="200" fill="rgba(30,150,30,0.18)" stroke="#1e961e" stroke-width="1.5" stroke-dasharray="6,4"/>
<rect x="221" y="372" width="298" height="52" fill="rgba(30,150,30,0.1)" stroke="#1e961e" stroke-width="1.5" stroke-dasharray="6,4"/>
<text x="370" y="166" font-size="9" fill="#1e961e" text-anchor="middle" font-weight="normal" font-family="sans-serif">5HP-19 ref ~256mm case*</text>
<rect x="250" y="173" width="239" height="215" fill="rgba(210,70,10,0.38)" stroke="#d24010" stroke-width="2.5"/>
<rect x="235" y="388" width="270" height="91" fill="rgba(210,70,10,0.22)" stroke="#d24010" stroke-width="1.5" stroke-dasharray="4,3"/>
<text x="370" y="438" font-size="9" fill="#d24010" text-anchor="middle" font-weight="normal" font-family="sans-serif">Pan 257mm wide ✓GRM | ~44mm deep ✓TMD</text>
<text x="370" y="451" font-size="8" fill="#9a5030" text-anchor="middle" font-weight="normal" font-family="sans-serif">(ground clearance issue — not tunnel width)</text>
<rect x="228" y="196" width="22" height="71" fill="rgba(210,0,0,0.7)" stroke="#aa0000" stroke-width="2"/>
<rect x="490" y="196" width="22" height="71" fill="rgba(210,0,0,0.7)" stroke="#aa0000" stroke-width="2"/>
<text x="223" y="235" font-size="8" fill="#aa0000" text-anchor="end" font-weight="normal" font-family="sans-serif">BOSS→GRIND</text>
<text x="517" y="235" font-size="8" fill="#aa0000" text-anchor="start" font-weight="normal" font-family="sans-serif">←BOSS→GRIND</text>
<line x1="236" y1="144" x2="236" y2="154" stroke="#555" stroke-width="1.2"/>
<line x1="504" y1="144" x2="504" y2="154" stroke="#555" stroke-width="1.2"/>
<line x1="236" y1="149" x2="504" y2="149" stroke="#555" stroke-width="1.2"/>
<text x="370" y="141" font-size="9" fill="#555" text-anchor="middle" font-weight="normal" font-family="sans-serif">Tunnel inner ~256mm*</text>
<line x1="236" y1="164" x2="236" y2="151" stroke="#555" stroke-width="1" stroke-dasharray="3,2"/>
<line x1="504" y1="164" x2="504" y2="151" stroke="#555" stroke-width="1" stroke-dasharray="3,2"/>
<line x1="540" y1="164" x2="550" y2="164" stroke="#555" stroke-width="1.2"/>
<line x1="540" y1="390" x2="550" y2="390" stroke="#555" stroke-width="1.2"/>
<line x1="545" y1="164" x2="545" y2="390" stroke="#555" stroke-width="1.2"/>
<text x="550" y="281" font-size="9" fill="#555" text-anchor="start" font-weight="normal" font-family="sans-serif">~215mm* ht</text>
<line x1="504" y1="164" x2="543" y2="164" stroke="#555" stroke-width="1" stroke-dasharray="3,2"/>
<line x1="250" y1="275" x2="250" y2="285" stroke="#d24010" stroke-width="1.2"/>
<line x1="490" y1="275" x2="490" y2="285" stroke="#d24010" stroke-width="1.2"/>
<line x1="250" y1="280" x2="490" y2="280" stroke="#d24010" stroke-width="1.2"/>
<text x="370" y="272" font-size="9" fill="#d24010" text-anchor="middle" font-weight="normal" font-family="sans-serif">~228mm case*</text>
<line x1="186" y1="173" x2="196" y2="173" stroke="#d24010" stroke-width="1.2"/>
<line x1="186" y1="388" x2="196" y2="388" stroke="#d24010" stroke-width="1.2"/>
<line x1="191" y1="173" x2="191" y2="388" stroke="#d24010" stroke-width="1.2"/>
<text x="186" y="284" font-size="9" fill="#d24010" text-anchor="end" font-weight="normal" font-family="sans-serif">~205mm*</text>
<line x1="250" y1="173" x2="193" y2="173" stroke="#d24010" stroke-width="1" stroke-dasharray="3,2"/>
<line x1="250" y1="388" x2="193" y2="388" stroke="#d24010" stroke-width="1" stroke-dasharray="3,2"/>
<line x1="370" y1="45" x2="370" y2="505" stroke="#ccc" stroke-width="1" stroke-dasharray="8,4"/>
<text x="373" y="60" font-size="9" fill="#bbb" text-anchor="start" font-weight="normal" font-family="sans-serif">CL</text>
<rect x="16" y="60" width="16" height="11" fill="rgba(30,150,30,0.2)" stroke="#1e961e" stroke-width="1.5" stroke-dasharray="6,4"/>
<text x="36" y="69" font-size="9" fill="#333" text-anchor="start" font-weight="normal" font-family="sans-serif">ZF 5HP-19 stock auto (reference)</text>
<rect x="16" y="76" width="16" height="11" fill="rgba(210,70,10,0.38)" stroke="#d24010" stroke-width="1.5"/>
<text x="36" y="85" font-size="9" fill="#333" text-anchor="start" font-weight="normal" font-family="sans-serif">Dodge 8HP70 case body</text>
<rect x="16" y="92" width="16" height="11" fill="rgba(210,70,10,0.22)" stroke="#d24010" stroke-width="1.5" stroke-dasharray="4,3"/>
<text x="36" y="101" font-size="9" fill="#333" text-anchor="start" font-weight="normal" font-family="sans-serif">Dodge 8HP70 pan (extends below floor)</text>
<rect x="16" y="108" width="16" height="11" fill="rgba(210,0,0,0.7)" stroke="#aa0000" stroke-width="1.5"/>
<text x="36" y="117" font-size="9" fill="#333" text-anchor="start" font-weight="normal" font-family="sans-serif">Bellhousing mounting bosses — GRIND THESE</text>
</svg>